<svg width="512" height="512" viewBox="0 0 502 512" xmlns="http://www.w3.org/2000/svg">
  <!-- Rounded Background Square -->
  <rect x="0" y="0" width="502" height="512" rx="100" ry="100" fill="#d5cac2"/>
  
  <!-- Cat-like "g" shape + Whiskers -->
  <!-- fill-rule="evenodd" ensures the hole in the 'g' is transparent -->
  <path fill="#937e73" fill-rule="evenodd" d="
    M 350,209 L 351,210 L 351,211 L 369,229 L 370,229 L 371,230 L 374,230 L 374,228 L 373,227 L 373,226 L 359,212 L 358,212 L 355,209 L 353,209 L 352,208 L 351,208 Z 
    M 114,204 L 112,204 L 111,205 L 110,205 L 109,206 L 109,207 L 107,209 L 107,211 L 106,212 L 106,213 L 105,214 L 105,216 L 104,217 L 104,218 L 103,219 L 103,221 L 102,222 L 102,224 L 101,225 L 101,228 L 100,229 L 101,230 L 101,232 L 102,232 L 104,230 L 104,229 L 105,228 L 105,227 L 106,226 L 106,224 L 107,223 L 107,222 L 108,221 L 108,219 L 109,218 L 109,216 L 110,215 L 110,213 L 111,212 L 111,210 L 112,209 L 112,208 L 113,207 L 113,206 L 114,205 Z 
    M 351,189 L 351,190 L 359,190 L 360,191 L 366,191 L 367,192 L 372,192 L 373,193 L 379,193 L 380,194 L 384,194 L 385,193 L 387,193 L 387,191 L 386,191 L 385,190 L 383,190 L 382,189 L 376,189 L 375,188 L 370,188 L 369,187 L 362,187 L 361,186 L 359,186 L 358,187 L 355,187 L 354,188 L 352,188 Z 
    M 111,184 L 109,182 L 108,182 L 107,181 L 104,181 L 103,180 L 98,180 L 97,181 L 93,181 L 92,182 L 90,182 L 89,183 L 87,183 L 86,184 L 84,184 L 83,185 L 82,185 L 81,186 L 80,186 L 76,190 L 76,192 L 77,192 L 78,193 L 79,192 L 80,192 L 81,191 L 82,191 L 84,189 L 85,189 L 86,188 L 88,188 L 89,187 L 91,187 L 92,186 L 95,186 L 96,185 L 100,185 L 101,184 L 107,184 L 108,185 L 111,185 Z 
    M 69,154 L 69,157 L 70,158 L 73,158 L 74,159 L 81,159 L 82,160 L 101,160 L 102,161 L 104,161 L 102,159 L 100,159 L 99,158 L 97,158 L 96,157 L 91,157 L 90,156 L 84,156 L 83,155 L 77,155 L 76,154 Z 
    M 373,138 L 369,138 L 362,145 L 361,145 L 354,152 L 354,153 L 352,155 L 352,157 L 354,157 L 355,156 L 356,156 L 359,153 L 360,153 L 366,147 L 367,147 L 372,142 L 372,141 L 373,140 Z 
    M 232,77 L 234,78 L 243,78 L 244,79 L 247,79 L 248,80 L 253,81 L 259,84 L 261,86 L 264,87 L 267,90 L 268,90 L 277,99 L 277,100 L 281,105 L 284,111 L 284,113 L 285,114 L 285,116 L 287,120 L 287,123 L 288,124 L 288,128 L 289,129 L 289,134 L 290,135 L 290,145 L 291,146 L 291,169 L 290,170 L 290,180 L 289,181 L 289,187 L 288,188 L 288,191 L 287,192 L 287,196 L 286,197 L 285,202 L 283,205 L 283,207 L 281,211 L 279,213 L 278,216 L 274,220 L 274,221 L 272,222 L 265,229 L 264,229 L 262,231 L 261,231 L 259,233 L 255,235 L 253,235 L 252,236 L 250,236 L 246,238 L 241,238 L 240,239 L 227,239 L 226,238 L 221,238 L 220,237 L 217,237 L 214,235 L 212,235 L 206,232 L 204,230 L 200,228 L 190,218 L 190,217 L 186,212 L 182,204 L 182,202 L 180,198 L 180,195 L 179,194 L 179,191 L 178,190 L 178,185 L 177,184 L 177,176 L 176,175 L 176,147 L 177,146 L 177,137 L 178,136 L 178,131 L 179,130 L 179,126 L 180,125 L 180,122 L 181,121 L 181,118 L 182,117 L 183,112 L 189,100 L 192,97 L 192,96 L 201,87 L 202,87 L 207,83 L 209,82 L 211,82 L 217,79 L 221,79 L 222,78 L 231,78 Z 
    M 316,43 L 302,55 L 288,76 L 266,68 L 238,64 L 194,70 L 164,48 L 155,69 L 156,96 L 142,113 L 135,128 L 131,163 L 138,191 L 158,220 L 188,243 L 158,254 L 138,273 L 134,285 L 134,302 L 140,316 L 153,328 L 181,338 L 272,346 L 311,355 L 331,370 L 340,394 L 340,409 L 333,429 L 309,452 L 291,460 L 267,465 L 213,464 L 177,453 L 153,432 L 146,418 L 144,399 L 149,380 L 163,360 L 155,358 L 139,361 L 127,370 L 120,383 L 118,409 L 122,423 L 142,449 L 183,470 L 222,477 L 263,477 L 309,468 L 336,454 L 353,438 L 368,408 L 370,381 L 364,356 L 351,335 L 331,319 L 310,311 L 283,306 L 180,297 L 164,291 L 158,283 L 160,270 L 177,258 L 200,253 L 254,249 L 287,239 L 310,223 L 324,205 L 336,175 L 337,146 L 331,122 L 322,105 L 324,68 Z"/>
</svg>
